<?xml version="1.0" encoding="UTF-8"?>
<svg xmlns="http://www.w3.org/2000/svg" xmlns:xlink="http://www.w3.org/1999/xlink" width="275px" height="52px" viewBox="0 0 274 52" version="1.1">
<g id="surface1">
<path style=" stroke:none;fill-rule:nonzero;fill:rgb(0.392157%,0.392157%,0.392157%);fill-opacity:1;" d="M 26.175781 3.316406 C 26.8125 3.128906 27.652344 3.398438 27.820312 4.105469 C 27.964844 4.941406 27.875 5.796875 27.796875 6.640625 C 27.53125 8.972656 27.171875 11.308594 26.503906 13.566406 C 25.0625 18.527344 23.773438 23.535156 22.097656 28.417969 C 21.179688 31.21875 20.273438 34.03125 19.042969 36.710938 C 18.730469 37.402344 18.441406 38.097656 18.175781 38.808594 C 21.699219 39.488281 25.082031 40.71875 28.421875 42.011719 C 31.085938 43.027344 33.703125 44.191406 36.480469 44.878906 C 37.074219 45.019531 37.695312 45.09375 38.308594 45.023438 C 38.988281 44.921875 39.515625 44.433594 40.0625 44.054688 C 41.617188 44.703125 42.957031 45.910156 43.65625 47.457031 C 43.984375 48.15625 43.878906 49.15625 43.132812 49.539062 C 42.253906 49.949219 41.246094 49.8125 40.316406 49.6875 C 38.15625 49.339844 36.011719 48.859375 33.964844 48.070312 C 29.3125 46.371094 25.238281 43.375 20.503906 41.882812 C 19.46875 41.5625 18.449219 41.160156 17.371094 41.015625 C 16.769531 40.941406 16.476562 41.601562 16.152344 41.992188 C 15.027344 43.746094 13.574219 45.355469 11.699219 46.3125 C 10.703125 46.835938 9.515625 47.125 8.414062 46.777344 C 6.773438 46.253906 5.699219 44.421875 6.003906 42.730469 C 6.253906 41.382812 7.128906 40.191406 8.277344 39.46875 C 9.402344 38.773438 10.703125 38.371094 12.023438 38.3125 C 12.863281 38.253906 13.710938 38.363281 14.542969 38.238281 C 15.179688 38.132812 15.417969 37.445312 15.71875 36.960938 C 18.558594 31.425781 20.683594 25.523438 22.121094 19.46875 C 22.636719 17.09375 23.160156 14.695312 23.109375 12.25 C 23.085938 11.484375 23.125 10.667969 22.785156 9.960938 C 22.355469 9.269531 21.582031 8.910156 21.066406 8.300781 C 20.941406 7.273438 21.617188 6.351562 22.289062 5.648438 C 23.367188 4.578125 24.6875 3.679688 26.175781 3.316406 M 9.117188 40.59375 C 8.164062 40.769531 7.246094 41.417969 6.941406 42.367188 C 6.757812 43.195312 7.09375 44.230469 7.894531 44.613281 C 8.71875 44.878906 9.613281 44.582031 10.324219 44.140625 C 11.738281 43.253906 12.6875 41.835938 13.515625 40.417969 C 12.046875 40.390625 10.5625 40.3125 9.117188 40.59375 Z M 9.117188 40.59375 "/>
<path style=" stroke:none;fill-rule:nonzero;fill:rgb(0.392157%,0.392157%,0.392157%);fill-opacity:1;" d="M 94.300781 6.554688 C 95.40625 5.523438 97.296875 5.640625 98.367188 6.664062 C 98.660156 6.902344 98.695312 7.402344 98.382812 7.636719 C 97.707031 8.335938 96.773438 8.769531 96.261719 9.625 C 94.691406 12.175781 93.347656 14.867188 92.273438 17.667969 C 92.027344 18.375 91.671875 19.070312 91.621094 19.824219 C 91.882812 20.519531 92.902344 21 92.574219 21.847656 C 92.339844 22.5625 91.527344 22.769531 90.972656 23.164062 C 90.464844 23.4375 90.378906 24.054688 90.265625 24.5625 C 89.824219 26.808594 89.570312 29.09375 89.566406 31.382812 C 89.707031 33.382812 89.816406 35.445312 90.601562 37.3125 C 90.988281 38.238281 91.71875 39.179688 92.792969 39.261719 C 93.980469 39.316406 95.027344 38.597656 95.921875 37.894531 C 97.511719 36.582031 98.703125 34.871094 99.972656 33.257812 C 101.347656 31.503906 101.675781 29.222656 102.683594 27.273438 C 103.230469 26.195312 103.867188 25.023438 105.007812 24.496094 C 105.570312 24.285156 106.40625 24.210938 106.765625 24.804688 C 107.113281 25.128906 106.660156 25.546875 106.578125 25.917969 C 105.617188 27.507812 105 29.273438 104.515625 31.0625 C 104.210938 32.320312 104.003906 33.65625 104.285156 34.941406 C 104.605469 36.441406 106.273438 37.53125 107.769531 37.109375 C 109.519531 36.65625 110.90625 35.390625 112.074219 34.0625 C 113.011719 33.019531 113.742188 31.792969 114.183594 30.460938 C 114.875 28.378906 115.679688 26.332031 116.597656 24.335938 C 116.992188 23.472656 117.523438 22.617188 118.375 22.144531 C 119.191406 21.621094 120.183594 21.589844 121.117188 21.617188 C 120.382812 22.671875 119.660156 23.78125 119.464844 25.085938 C 118.898438 28.074219 117.855469 30.941406 117.253906 33.921875 C 117.6875 33.476562 118.113281 33.027344 118.492188 32.53125 C 120.304688 29.90625 122.03125 27.207031 124.117188 24.789062 C 125.007812 23.75 125.882812 22.613281 127.148438 22.015625 C 127.902344 21.636719 128.757812 21.609375 129.585938 21.570312 C 129.5625 22.433594 129.441406 23.308594 129 24.066406 C 127.96875 25.90625 127.152344 27.894531 126.804688 29.988281 C 126.644531 31.253906 126.648438 32.535156 126.710938 33.808594 C 126.796875 34.941406 127.066406 36.160156 127.882812 37.003906 C 128.535156 37.644531 129.601562 37.535156 130.339844 37.105469 C 131.546875 36.398438 132.472656 35.316406 133.421875 34.308594 C 134.179688 33.460938 135.054688 32.683594 135.550781 31.636719 C 136.128906 30.449219 136.382812 29.144531 136.792969 27.898438 C 137.351562 26.113281 138.117188 24.402344 138.847656 22.683594 C 139.488281 21.226562 140.222656 19.804688 140.734375 18.292969 C 139.519531 18.53125 138.289062 18.984375 137.039062 18.804688 C 136.292969 18.535156 136.230469 17.585938 136.347656 16.917969 C 136.40625 16.382812 136.871094 15.996094 137.390625 15.945312 C 138.839844 15.730469 140.332031 15.832031 141.757812 15.464844 C 142.375 15.324219 142.714844 14.734375 142.980469 14.210938 C 143.714844 12.726562 144.410156 11.21875 145.273438 9.804688 C 145.730469 9.035156 146.464844 8.382812 147.375 8.261719 C 148.140625 8.164062 149.039062 8.140625 149.644531 8.703125 C 149.96875 8.945312 150.015625 9.441406 149.785156 9.761719 C 149.382812 10.324219 148.761719 10.671875 148.25 11.117188 C 147.011719 12.109375 146.121094 13.476562 145.46875 14.910156 C 150.613281 14.332031 155.820312 13.3125 160.46875 10.933594 C 161.25 10.527344 162.113281 10.304688 162.992188 10.292969 C 162.613281 10.753906 162.261719 11.261719 161.742188 11.574219 C 156.542969 14.140625 151.070312 16.175781 145.382812 17.34375 C 144.859375 17.46875 144.289062 17.527344 143.839844 17.84375 C 143.394531 18.214844 143.171875 18.773438 142.917969 19.28125 C 142.070312 21.160156 141.234375 23.042969 140.421875 24.9375 C 139.59375 26.851562 139.238281 28.9375 139.097656 31.007812 C 139.050781 32.660156 138.988281 34.464844 139.921875 35.90625 C 140.421875 36.730469 141.445312 37.226562 142.390625 36.941406 C 144.3125 36.449219 145.894531 35.074219 147.054688 33.503906 C 148.269531 31.769531 148.777344 29.679688 149.65625 27.777344 C 150.453125 26.019531 151.207031 24.070312 152.871094 22.949219 C 153.535156 22.460938 154.375 22.351562 155.175781 22.332031 C 154.554688 23.457031 153.769531 24.507812 153.464844 25.785156 C 152.988281 27.761719 152.296875 29.679688 151.90625 31.675781 C 153.0625 30.523438 153.898438 29.105469 155.015625 27.921875 C 156.761719 25.9375 158.671875 24.042969 160.953125 22.6875 C 161.765625 22.207031 162.699219 21.84375 163.65625 21.984375 C 164.3125 22.050781 164.894531 22.578125 165 23.238281 C 165.234375 24.601562 164.753906 25.972656 164.105469 27.15625 C 163.628906 27.980469 163.015625 28.875 162.023438 29.085938 C 161.488281 28.453125 161.308594 27.550781 160.664062 27.003906 C 159.789062 26.550781 158.710938 26.800781 157.910156 27.300781 C 156.285156 28.292969 155.199219 29.910156 154.046875 31.382812 C 153.152344 32.660156 152.226562 33.925781 151.472656 35.292969 C 150.71875 36.65625 151.210938 38.339844 150.5 39.707031 C 149.632812 41.09375 147.878906 41.433594 146.363281 41.320312 C 146.332031 39.640625 146.570312 37.976562 146.597656 36.300781 C 144.328125 38.648438 141.679688 40.949219 138.363281 41.53125 C 137.402344 41.746094 136.175781 41.683594 135.613281 40.742188 C 134.554688 39.015625 134.863281 36.890625 135.03125 34.976562 C 134.421875 35.476562 133.808594 35.980469 133.320312 36.601562 C 132.167969 38.050781 130.832031 39.355469 129.320312 40.417969 C 128.175781 41.226562 126.753906 41.765625 125.34375 41.496094 C 124.351562 41.289062 123.652344 40.421875 123.269531 39.527344 C 122.515625 37.773438 122.558594 35.820312 122.605469 33.945312 C 122.667969 32.460938 122.980469 31 123.042969 29.515625 C 121.046875 32.226562 119.355469 35.148438 117.386719 37.878906 C 116.640625 38.921875 115.859375 39.96875 114.828125 40.742188 C 114.15625 41.230469 113.300781 41.289062 112.503906 41.367188 C 112.292969 39.558594 112.410156 37.734375 112.613281 35.929688 C 111.214844 37.117188 110.0625 38.589844 108.519531 39.605469 C 107.042969 40.609375 105.320312 41.507812 103.480469 41.320312 C 102.324219 41.265625 101.230469 40.507812 100.816406 39.414062 C 100.261719 38.015625 100.402344 36.484375 100.394531 35.015625 C 99.828125 35.671875 99.277344 36.339844 98.777344 37.046875 C 97.191406 39.359375 95.03125 41.355469 92.421875 42.429688 C 91.277344 42.867188 89.960938 43.078125 88.785156 42.65625 C 87.578125 42.148438 87.007812 40.847656 86.695312 39.65625 C 86.273438 38.175781 86.324219 36.625 86.308594 35.101562 C 84.949219 36.476562 83.703125 37.980469 82.132812 39.132812 C 80.425781 40.398438 78.457031 41.570312 76.269531 41.550781 C 75.316406 41.574219 74.339844 41.148438 73.800781 40.339844 C 73.109375 39.386719 73.132812 38.148438 73.160156 37.027344 C 73.1875 35.796875 73.753906 34.683594 74.1875 33.5625 C 72.960938 34.0625 71.699219 34.453125 70.464844 34.929688 C 69.445312 35.308594 68.980469 36.367188 68.363281 37.183594 C 66.632812 39.570312 64.152344 41.601562 61.191406 42.128906 C 59.546875 42.429688 57.632812 42.164062 56.46875 40.851562 C 54.992188 39.304688 54.671875 37.089844 54.46875 35.046875 C 52.769531 37.019531 51.164062 39.140625 49.007812 40.636719 C 47.992188 41.3125 46.8125 41.90625 45.558594 41.847656 C 44.46875 41.757812 43.730469 40.792969 43.347656 39.847656 C 42.792969 38.558594 43.089844 37.128906 43.234375 35.785156 C 42.273438 36.984375 41.476562 38.3125 40.394531 39.40625 C 39.089844 40.726562 37.683594 41.996094 36.007812 42.824219 C 35.148438 43.222656 33.996094 43.476562 33.179688 42.863281 C 32.394531 42.039062 32.296875 40.816406 32.160156 39.738281 C 32.074219 37.945312 31.960938 36.121094 32.320312 34.351562 C 33.140625 30.734375 34.839844 27.398438 36.679688 24.210938 C 37.121094 23.441406 37.75 22.636719 38.695312 22.53125 C 39.164062 22.417969 39.605469 22.609375 40.035156 22.773438 C 39.832031 23.316406 39.597656 23.847656 39.285156 24.335938 C 38.382812 25.78125 37.648438 27.324219 36.96875 28.878906 C 36.269531 30.484375 35.933594 32.238281 35.96875 33.988281 C 35.988281 35.117188 35.972656 36.460938 36.867188 37.285156 C 37.765625 37.945312 38.976562 37.507812 39.808594 36.941406 C 41.882812 35.476562 43.445312 33.292969 44.21875 30.871094 C 44.765625 28.914062 45.230469 26.925781 46.03125 25.054688 C 46.386719 24.238281 47.066406 23.640625 47.703125 23.050781 C 47.859375 23.132812 48.171875 23.292969 48.324219 23.375 C 47.847656 26.660156 47.21875 29.929688 47.074219 33.253906 C 46.941406 34.574219 46.925781 35.945312 47.375 37.214844 C 47.570312 37.773438 48.027344 38.363281 48.683594 38.320312 C 49.789062 38.257812 50.699219 37.507812 51.46875 36.777344 C 52.554688 35.699219 53.675781 34.574219 54.277344 33.136719 C 54.808594 31.917969 54.910156 30.574219 55.257812 29.300781 C 55.953125 26.640625 57.441406 24.164062 59.582031 22.425781 C 60.246094 21.886719 61.074219 21.425781 61.960938 21.578125 C 62.40625 21.597656 62.796875 22.011719 62.71875 22.46875 C 62.746094 22.933594 62.269531 23.148438 61.929688 23.339844 C 61.167969 23.691406 60.328125 23.996094 59.820312 24.714844 C 58.035156 27.078125 57.550781 30.226562 57.972656 33.109375 C 58.175781 34.664062 59.074219 36.054688 60.277344 37.027344 C 60.9375 37.53125 61.792969 37.839844 62.625 37.695312 C 63.796875 37.519531 64.800781 36.851562 65.785156 36.242188 C 65.800781 36.097656 65.820312 35.949219 65.835938 35.804688 C 64.289062 35.554688 62.675781 35.054688 61.632812 33.808594 C 60.160156 32.210938 60.011719 29.855469 60.433594 27.820312 C 60.867188 25.820312 61.984375 24.007812 63.394531 22.550781 C 64.6875 21.277344 66.464844 20.3125 68.324219 20.488281 C 69.625 20.558594 70.832031 21.351562 71.492188 22.46875 C 72.460938 24.078125 72.617188 26.0625 72.320312 27.890625 C 72.089844 29.578125 71.398438 31.15625 71.085938 32.828125 C 72.121094 32.582031 73.15625 32.285156 74.078125 31.742188 C 75.148438 31.136719 76.039062 30.277344 76.90625 29.417969 C 77.863281 28.445312 79.050781 27.738281 80.050781 26.816406 C 82.289062 24.8125 84.75 22.996094 87.546875 21.863281 C 88.15625 21.585938 88.953125 21.335938 89.097656 20.582031 C 89.855469 16.949219 90.707031 13.300781 92.1875 9.882812 C 92.726562 8.683594 93.320312 7.457031 94.300781 6.554688 M 64.410156 24.867188 C 63.734375 25.410156 63.496094 26.308594 63.425781 27.136719 C 63.363281 28.253906 63.621094 29.457031 64.40625 30.292969 C 65.488281 31.441406 66.898438 32.363281 68.5 32.503906 C 68.839844 30.699219 69.402344 28.835938 68.921875 27 C 68.671875 25.886719 67.929688 24.726562 66.75 24.472656 C 65.964844 24.335938 65.058594 24.34375 64.410156 24.867188 M 80.347656 28.972656 C 79.210938 30.074219 78.128906 31.292969 77.503906 32.765625 C 77.078125 33.75 77.160156 35.039062 77.992188 35.789062 C 78.753906 36.570312 79.964844 36.394531 80.917969 36.160156 C 83.367188 35.476562 85.136719 33.445312 86.371094 31.3125 C 86.882812 30.402344 87.046875 29.359375 87.269531 28.351562 C 87.542969 27.011719 87.976562 25.699219 88.109375 24.332031 C 85.292969 25.433594 82.539062 26.851562 80.347656 28.972656 Z M 80.347656 28.972656 "/>
<path style=" stroke:none;fill-rule:nonzero;fill:rgb(0.392157%,0.392157%,0.392157%);fill-opacity:1;" d="M 250.210938 8.503906 C 251.019531 8.164062 251.949219 8.132812 252.792969 8.339844 C 253.300781 8.480469 253.882812 8.964844 253.671875 9.550781 C 253.320312 10.226562 252.597656 10.578125 252.039062 11.050781 C 250.726562 12.039062 249.804688 13.453125 249.132812 14.933594 C 253.585938 14.378906 258.082031 13.597656 262.234375 11.828125 C 263.679688 11.234375 265.042969 10.261719 266.667969 10.285156 C 266.242188 10.824219 265.820312 11.414062 265.175781 11.710938 C 262.164062 13.136719 259.101562 14.464844 255.9375 15.503906 C 253.566406 16.21875 251.1875 16.917969 248.753906 17.382812 C 248.175781 17.503906 247.503906 17.628906 247.183594 18.1875 C 246.5 19.296875 246.070312 20.535156 245.515625 21.710938 C 244.671875 23.691406 243.652344 25.625 243.222656 27.753906 C 242.808594 29.773438 242.601562 31.859375 242.875 33.910156 C 243.050781 35.011719 243.496094 36.222656 244.535156 36.777344 C 245.417969 37.265625 246.464844 36.914062 247.3125 36.515625 C 249.476562 35.496094 250.835938 33.429688 252.257812 31.597656 C 252.492188 31.628906 252.957031 31.691406 253.191406 31.722656 C 252.53125 33.398438 251.367188 34.777344 250.273438 36.179688 C 248.847656 37.867188 247.125 39.304688 245.203125 40.394531 C 243.742188 41.179688 242.078125 41.738281 240.398438 41.527344 C 239.785156 41.421875 239.347656 40.898438 239.097656 40.359375 C 238.496094 39.097656 238.464844 37.648438 238.609375 36.28125 C 239.167969 31.96875 240.3125 27.726562 242.085938 23.753906 C 242.820312 21.910156 243.808594 20.175781 244.421875 18.28125 C 243.195312 18.476562 241.972656 18.960938 240.714844 18.789062 C 239.941406 18.402344 239.878906 17.339844 240.140625 16.609375 C 240.292969 16.148438 240.800781 15.980469 241.238281 15.921875 C 242.628906 15.75 244.0625 15.824219 245.433594 15.476562 C 246.109375 15.316406 246.457031 14.664062 246.75 14.097656 C 247.339844 12.878906 247.898438 11.640625 248.539062 10.445312 C 248.949219 9.695312 249.390625 8.859375 250.210938 8.503906 Z M 250.210938 8.503906 "/>
<path style=" stroke:none;fill-rule:nonzero;fill:rgb(0.392157%,0.392157%,0.392157%);fill-opacity:1;" d="M 106.789062 17.066406 C 107.558594 16.175781 108.75 15.457031 109.960938 15.699219 C 110.359375 15.71875 110.332031 16.152344 110.417969 16.441406 C 110.519531 17.078125 110.8125 17.652344 111.117188 18.214844 C 109.988281 18.96875 108.824219 19.785156 107.453125 20 C 106.941406 20.046875 106.195312 20.074219 106.007812 19.464844 C 105.761719 18.59375 106.253906 17.722656 106.789062 17.066406 Z M 106.789062 17.066406 "/>
<path style=" stroke:none;fill-rule:nonzero;fill:rgb(0.392157%,0.392157%,0.392157%);fill-opacity:1;" d="M 176.742188 20.683594 C 178.199219 20.242188 179.9375 20.4375 181.066406 21.53125 C 182.5 22.898438 182.941406 25.007812 182.804688 26.925781 C 182.710938 28.960938 181.863281 30.839844 181.421875 32.804688 C 182.925781 32.414062 184.738281 32.046875 185.589844 30.597656 C 186.261719 28.835938 186.214844 26.8125 187.28125 25.195312 C 188.15625 23.777344 190.589844 23.550781 191.535156 25 C 191.800781 25.34375 191.453125 25.730469 191.320312 26.054688 C 190.742188 27.003906 190.203125 27.980469 189.898438 29.054688 C 189.238281 31.300781 188.675781 33.652344 188.941406 36.007812 C 189.019531 36.832031 189.605469 37.761719 190.511719 37.765625 C 191.582031 37.640625 192.507812 37.027344 193.421875 36.503906 C 195.480469 35.289062 197.167969 33.515625 198.464844 31.527344 C 197.222656 30.726562 195.75 29.957031 195.21875 28.480469 C 194.726562 26.726562 195.324219 24.808594 196.417969 23.398438 C 197.265625 22.320312 198.371094 21.285156 199.78125 21.0625 C 201.277344 20.796875 202.929688 21.882812 203.15625 23.421875 C 203.339844 24.804688 203.058594 26.207031 202.570312 27.503906 C 202.242188 28.398438 201.722656 29.242188 201.621094 30.210938 C 202.589844 30.683594 203.695312 30.730469 204.753906 30.746094 C 205.53125 30.734375 206.320312 30.757812 207.089844 30.589844 C 207.820312 30.421875 208.226562 29.722656 208.65625 29.167969 C 210.09375 27.09375 211.945312 25.253906 214.207031 24.097656 C 215.457031 23.453125 216.765625 22.878906 218.152344 22.613281 C 219.101562 22.414062 220.238281 22.738281 220.699219 23.648438 C 220.988281 24.398438 220.8125 25.25 220.523438 25.972656 C 219.886719 27.46875 218.742188 28.664062 217.550781 29.734375 C 215.460938 31.585938 212.863281 32.753906 210.199219 33.507812 C 210.230469 34.671875 210.277344 35.980469 211.140625 36.875 C 212.226562 38.101562 214.042969 38.367188 215.558594 37.902344 C 218.390625 37.222656 221.140625 35.265625 221.984375 32.367188 C 222.691406 30.238281 223.496094 28.140625 224.476562 26.125 C 225.097656 24.839844 225.894531 23.542969 227.164062 22.804688 C 227.78125 22.40625 228.535156 22.363281 229.253906 22.328125 C 228.640625 23.449219 227.835938 24.488281 227.542969 25.757812 C 227.097656 27.644531 226.371094 29.46875 226.132812 31.402344 C 227.277344 30.210938 228.136719 28.773438 229.304688 27.597656 C 230.773438 26.105469 232.167969 24.503906 233.914062 23.320312 C 234.976562 22.582031 236.183594 21.859375 237.527344 21.960938 C 238.15625 21.960938 238.863281 22.277344 239.027344 22.9375 C 239.34375 24.277344 238.957031 25.679688 238.359375 26.886719 C 238.054688 27.464844 237.730469 28.0625 237.230469 28.496094 C 236.851562 28.777344 236.417969 28.984375 236.003906 29.210938 C 235.570312 28.402344 235.339844 27.332031 234.457031 26.882812 C 233.339844 26.53125 232.179688 27.054688 231.324219 27.765625 C 229.972656 28.875 228.917969 30.300781 227.878906 31.695312 C 227.078125 32.878906 226.214844 34.027344 225.539062 35.292969 C 224.851562 36.578125 225.1875 38.113281 224.691406 39.453125 C 223.96875 40.882812 222.195312 41.53125 220.671875 41.289062 C 220.132812 39.949219 220.671875 38.492188 220.589844 37.101562 C 219.386719 38.3125 218.191406 39.566406 216.695312 40.421875 C 214.488281 41.820312 211.820312 42.496094 209.21875 42.21875 C 207.667969 42.039062 206.160156 40.960938 205.820312 39.378906 C 205.152344 36.949219 206.035156 34.507812 206.652344 32.175781 C 205.347656 32.257812 204.042969 32.488281 202.734375 32.34375 C 201.9375 32.289062 201.148438 32.066406 200.347656 32.101562 C 199.898438 32.230469 199.640625 32.679688 199.355469 33.011719 C 197.234375 35.925781 194.777344 38.644531 191.828125 40.730469 C 190.855469 41.382812 189.824219 42.085938 188.625 42.199219 C 187.535156 42.234375 186.660156 41.359375 186.273438 40.40625 C 185.308594 38.117188 185.480469 35.578125 185.382812 33.148438 C 184.078125 33.617188 182.84375 34.261719 181.527344 34.6875 C 180.9375 34.886719 180.296875 35.074219 179.878906 35.570312 C 179.210938 36.339844 178.730469 37.25 178.0625 38.019531 C 176.410156 39.96875 174.242188 41.617188 171.695312 42.109375 C 170.082031 42.433594 168.214844 42.246094 166.988281 41.046875 C 165.660156 39.71875 165.09375 37.816406 164.910156 35.984375 C 164.683594 33.242188 165.171875 30.46875 166.066406 27.882812 C 166.789062 25.882812 168.070312 24.121094 169.636719 22.699219 C 170.304688 22.117188 171.09375 21.558594 172.007812 21.503906 C 172.542969 21.476562 173.15625 21.867188 173.0625 22.46875 C 173.101562 22.9375 172.613281 23.15625 172.273438 23.34375 C 171.550781 23.679688 170.753906 23.960938 170.257812 24.625 C 169.054688 26.125 168.484375 28.046875 168.253906 29.933594 C 168.054688 31.957031 168.269531 34.183594 169.570312 35.828125 C 170.296875 36.75 171.277344 37.714844 172.539062 37.65625 C 173.886719 37.714844 175.023438 36.90625 176.132812 36.257812 C 176.148438 36.101562 176.167969 35.945312 176.1875 35.789062 C 174.859375 35.550781 173.472656 35.222656 172.453125 34.277344 C 171.214844 33.199219 170.582031 31.53125 170.589844 29.902344 C 170.546875 27.867188 171.257812 25.867188 172.402344 24.199219 C 173.429688 22.609375 174.929688 21.28125 176.742188 20.683594 M 199.09375 24.109375 C 197.863281 24.640625 196.828125 26.171875 197.539062 27.492188 C 197.914062 28.472656 198.824219 29.03125 199.746094 29.417969 C 200.28125 28.078125 200.867188 26.65625 200.625 25.183594 C 200.5625 24.464844 199.804688 23.824219 199.09375 24.109375 M 175.589844 24.472656 C 174.980469 24.574219 174.417969 24.960938 174.152344 25.527344 C 173.664062 26.527344 173.644531 27.714844 173.910156 28.78125 C 174.203125 29.914062 175.113281 30.738281 176.035156 31.382812 C 176.824219 31.90625 177.6875 32.425781 178.660156 32.453125 C 179.191406 31.429688 179.324219 30.257812 179.4375 29.128906 C 179.554688 27.632812 179.203125 25.972656 178.042969 24.941406 C 177.386719 24.339844 176.417969 24.332031 175.589844 24.472656 M 212.351562 27.675781 C 211.421875 28.601562 210.925781 29.863281 210.671875 31.132812 C 212.359375 31.035156 214.128906 30.613281 215.425781 29.457031 C 216.027344 28.90625 216.601562 28.164062 216.574219 27.300781 C 216.582031 26.722656 215.984375 26.34375 215.46875 26.296875 C 214.277344 26.1875 213.15625 26.84375 212.351562 27.675781 Z M 212.351562 27.675781 "/>
</g>
</svg>
