<?xml version="1.0" encoding="UTF-8" ?>
<!DOCTYPE svg PUBLIC "-//W3C//DTD SVG 1.1//EN" "http://www.w3.org/Graphics/SVG/1.1/DTD/svg11.dtd">
<svg width="370pt" height="70pt" viewBox="0 0 1480 280" version="1.1" xmlns="http://www.w3.org/2000/svg">
<g id="#FFFFFFff">
<path fill="#FFFFFF" opacity="1.00" d=" M 141.38 17.85 C 144.83 16.84 149.37 18.29 150.28 22.10 C 151.05 26.61 150.56 31.22 150.14 35.75 C 148.71 48.32 146.76 60.90 143.15 73.06 C 135.37 99.76 128.42 126.72 119.37 153.03 C 114.40 168.10 109.51 183.25 102.85 197.68 C 101.18 201.39 99.61 205.15 98.17 208.96 C 117.20 212.62 135.48 219.25 153.51 226.22 C 167.90 231.68 182.05 237.96 197.04 241.65 C 200.26 242.41 203.61 242.81 206.92 242.43 C 210.60 241.88 213.45 239.26 216.40 237.22 C 224.80 240.71 232.03 247.21 235.81 255.54 C 237.59 259.31 237.00 264.69 232.97 266.74 C 228.23 268.96 222.78 268.23 217.77 267.54 C 206.11 265.67 194.51 263.09 183.47 258.84 C 158.34 249.69 136.33 233.56 110.75 225.53 C 105.17 223.79 99.65 221.64 93.83 220.85 C 90.59 220.46 88.99 224.01 87.25 226.12 C 81.16 235.56 73.33 244.23 63.20 249.38 C 57.82 252.20 51.39 253.75 45.44 251.88 C 36.59 249.05 30.79 239.20 32.43 230.08 C 33.78 222.84 38.51 216.42 44.70 212.52 C 50.78 208.78 57.82 206.61 64.95 206.29 C 69.48 205.98 74.06 206.58 78.56 205.90 C 81.99 205.34 83.29 201.63 84.90 199.03 C 100.24 169.21 111.73 137.44 119.48 104.83 C 122.28 92.05 125.09 79.12 124.82 65.96 C 124.69 61.83 124.90 57.45 123.08 53.63 C 120.76 49.91 116.58 47.98 113.78 44.70 C 113.11 39.16 116.77 34.21 120.40 30.42 C 126.21 24.65 133.35 19.82 141.38 17.85 M 49.25 218.58 C 44.10 219.53 39.15 223.02 37.50 228.13 C 36.50 232.60 38.32 238.16 42.64 240.22 C 47.10 241.66 51.93 240.06 55.77 237.68 C 63.41 232.91 68.54 225.26 73.00 217.64 C 65.08 217.48 57.06 217.06 49.25 218.58 Z" />
<path fill="#FFFFFF" opacity="1.00" d=" M 509.36 35.29 C 515.34 29.74 525.54 30.37 531.33 35.88 C 532.90 37.16 533.09 39.85 531.41 41.13 C 527.77 44.89 522.72 47.22 519.95 51.82 C 511.47 65.56 504.21 80.06 498.41 95.14 C 497.09 98.94 495.17 102.68 494.88 106.74 C 496.30 110.49 501.80 113.08 500.03 117.65 C 498.77 121.49 494.38 122.60 491.39 124.74 C 488.64 126.20 488.17 129.52 487.57 132.26 C 485.19 144.35 483.80 156.66 483.79 168.99 C 484.55 179.75 485.14 190.85 489.39 200.92 C 491.46 205.90 495.42 210.96 501.21 211.41 C 507.64 211.70 513.28 207.84 518.12 204.05 C 526.70 196.97 533.15 187.77 539.99 179.09 C 547.43 169.63 549.19 157.35 554.65 146.86 C 557.59 141.06 561.03 134.74 567.20 131.90 C 570.24 130.76 574.74 130.36 576.68 133.56 C 578.56 135.32 576.12 137.57 575.68 139.55 C 570.49 148.11 567.15 157.63 564.54 167.25 C 562.89 174.04 561.78 181.22 563.29 188.15 C 565.02 196.23 574.04 202.09 582.11 199.82 C 591.57 197.39 599.06 190.56 605.37 183.41 C 610.43 177.80 614.38 171.20 616.76 164.02 C 620.49 152.80 624.83 141.78 629.79 131.05 C 631.93 126.40 634.79 121.78 639.40 119.24 C 643.80 116.43 649.16 116.26 654.22 116.40 C 650.24 122.08 646.35 128.06 645.28 135.07 C 642.23 151.16 636.60 166.61 633.35 182.65 C 635.68 180.25 637.99 177.83 640.03 175.17 C 649.82 161.03 659.14 146.50 670.41 133.47 C 675.22 127.88 679.96 121.77 686.78 118.54 C 690.85 116.50 695.49 116.36 699.95 116.15 C 699.82 120.79 699.18 125.51 696.78 129.58 C 691.21 139.50 686.81 150.21 684.94 161.47 C 684.06 168.28 684.08 175.19 684.42 182.04 C 684.89 188.15 686.34 194.71 690.75 199.25 C 694.28 202.71 700.03 202.11 704.02 199.79 C 710.55 195.99 715.54 190.17 720.68 184.74 C 724.77 180.18 729.50 175.98 732.17 170.35 C 735.29 163.96 736.66 156.93 738.89 150.22 C 741.89 140.60 746.04 131.40 749.98 122.14 C 753.43 114.29 757.40 106.65 760.17 98.51 C 753.61 99.78 746.97 102.23 740.22 101.26 C 736.18 99.81 735.84 94.70 736.48 91.10 C 736.80 88.21 739.30 86.13 742.11 85.85 C 749.93 84.71 757.99 85.25 765.70 83.28 C 769.04 82.51 770.86 79.34 772.31 76.52 C 776.26 68.52 780.03 60.40 784.69 52.79 C 787.16 48.66 791.12 45.13 796.04 44.49 C 800.17 43.97 805.03 43.83 808.29 46.87 C 810.04 48.17 810.31 50.84 809.06 52.57 C 806.88 55.60 803.54 57.46 800.77 59.87 C 794.07 65.21 789.26 72.56 785.74 80.29 C 813.54 77.17 841.65 71.68 866.77 58.87 C 870.99 56.69 875.64 55.48 880.40 55.43 C 878.35 57.91 876.46 60.65 873.65 62.33 C 845.57 76.14 815.99 87.10 785.28 93.38 C 782.45 94.07 779.38 94.38 776.94 96.09 C 774.53 98.08 773.33 101.09 771.97 103.82 C 767.38 113.93 762.87 124.08 758.49 134.28 C 754.01 144.58 752.10 155.81 751.33 166.96 C 751.07 175.86 750.75 185.57 755.78 193.35 C 758.48 197.77 764.01 200.46 769.11 198.92 C 779.49 196.26 788.05 188.86 794.31 180.40 C 800.87 171.07 803.62 159.81 808.37 149.56 C 812.67 140.11 816.74 129.61 825.72 123.57 C 829.31 120.94 833.84 120.35 838.18 120.25 C 834.83 126.30 830.58 131.96 828.93 138.84 C 826.37 149.48 822.63 159.81 820.52 170.56 C 826.76 164.35 831.28 156.72 837.31 150.35 C 846.74 139.66 857.05 129.47 869.39 122.16 C 873.76 119.58 878.82 117.63 883.99 118.37 C 887.53 118.74 890.67 121.58 891.25 125.13 C 892.51 132.47 889.91 139.86 886.41 146.22 C 883.83 150.67 880.52 155.48 875.16 156.61 C 872.27 153.21 871.30 148.34 867.81 145.41 C 863.10 142.97 857.27 144.32 852.94 147.00 C 844.16 152.35 838.31 161.05 832.08 168.99 C 827.25 175.86 822.25 182.67 818.18 190.03 C 814.10 197.37 816.76 206.44 812.91 213.81 C 808.23 221.28 798.76 223.10 790.58 222.50 C 790.40 213.46 791.70 204.49 791.85 195.46 C 779.58 208.10 765.27 220.50 747.36 223.63 C 742.18 224.79 735.54 224.46 732.52 219.39 C 726.80 210.09 728.45 198.65 729.36 188.33 C 726.08 191.03 722.77 193.75 720.12 197.09 C 713.91 204.88 706.68 211.92 698.51 217.64 C 692.34 221.98 684.65 224.89 677.04 223.45 C 671.67 222.33 667.91 217.65 665.83 212.85 C 661.77 203.39 661.99 192.87 662.24 182.78 C 662.58 174.78 664.28 166.92 664.61 158.92 C 653.84 173.53 644.70 189.27 634.05 203.97 C 630.02 209.57 625.82 215.22 620.24 219.38 C 616.60 222.01 611.99 222.32 607.68 222.75 C 606.55 213.01 607.18 203.18 608.28 193.46 C 600.72 199.86 594.49 207.79 586.16 213.25 C 578.19 218.67 568.89 223.51 558.95 222.50 C 552.69 222.20 546.80 218.11 544.55 212.23 C 541.56 204.70 542.31 196.46 542.27 188.54 C 539.21 192.07 536.25 195.68 533.54 199.48 C 524.97 211.93 513.31 222.68 499.21 228.46 C 493.04 230.82 485.93 231.95 479.57 229.68 C 473.06 226.96 469.96 219.95 468.28 213.54 C 466.00 205.56 466.27 197.21 466.19 189.00 C 458.85 196.42 452.11 204.52 443.63 210.71 C 434.42 217.52 423.79 223.84 411.97 223.73 C 406.82 223.87 401.54 221.56 398.63 217.21 C 394.90 212.09 395.03 205.42 395.18 199.38 C 395.32 192.76 398.38 186.76 400.72 180.72 C 394.10 183.41 387.27 185.52 380.62 188.09 C 375.10 190.13 372.60 195.83 369.27 200.22 C 359.92 213.08 346.52 224.01 330.52 226.84 C 321.63 228.46 311.31 227.04 305.01 219.97 C 297.04 211.64 295.30 199.71 294.22 188.72 C 285.04 199.33 276.37 210.75 264.71 218.81 C 259.22 222.46 252.85 225.65 246.09 225.33 C 240.19 224.85 236.21 219.66 234.14 214.57 C 231.14 207.62 232.75 199.92 233.52 192.69 C 228.34 199.14 224.04 206.30 218.18 212.18 C 211.15 219.30 203.55 226.14 194.50 230.59 C 189.86 232.73 183.63 234.11 179.22 230.80 C 174.97 226.37 174.45 219.78 173.71 213.98 C 173.24 204.32 172.63 194.49 174.58 184.96 C 179.00 165.49 188.19 147.54 198.12 130.36 C 200.51 126.22 203.90 121.90 209.01 121.32 C 211.55 120.71 213.93 121.75 216.25 122.62 C 215.16 125.55 213.88 128.41 212.19 131.04 C 207.32 138.82 203.36 147.12 199.68 155.51 C 195.90 164.15 194.09 173.60 194.29 183.02 C 194.38 189.09 194.31 196.32 199.13 200.77 C 203.99 204.32 210.53 201.96 215.02 198.92 C 226.22 191.02 234.66 179.26 238.84 166.23 C 241.81 155.70 244.31 144.98 248.63 134.90 C 250.55 130.51 254.22 127.30 257.66 124.12 C 258.50 124.56 260.19 125.43 261.03 125.87 C 258.45 143.55 255.06 161.17 254.26 179.06 C 253.56 186.17 253.47 193.55 255.89 200.38 C 256.95 203.40 259.42 206.58 262.97 206.34 C 268.94 206.01 273.84 201.97 278.01 198.03 C 283.88 192.22 289.93 186.16 293.18 178.42 C 296.04 171.86 296.59 164.62 298.48 157.77 C 302.23 143.44 310.26 130.12 321.82 120.76 C 325.42 117.86 329.90 115.37 334.68 116.19 C 337.09 116.29 339.20 118.52 338.77 120.98 C 338.93 123.48 336.35 124.65 334.52 125.67 C 330.39 127.56 325.85 129.21 323.12 133.09 C 313.47 145.81 310.86 162.76 313.14 178.29 C 314.23 186.65 319.09 194.14 325.59 199.37 C 329.15 202.09 333.77 203.75 338.27 202.97 C 344.59 202.02 350.01 198.43 355.34 195.16 C 355.43 194.37 355.52 193.57 355.62 192.79 C 347.26 191.44 338.55 188.75 332.91 182.04 C 324.95 173.45 324.15 160.76 326.44 149.81 C 328.77 139.04 334.81 129.28 342.42 121.42 C 349.41 114.58 359.00 109.38 369.04 110.33 C 376.08 110.70 382.59 114.98 386.16 120.99 C 391.39 129.66 392.24 140.34 390.64 150.17 C 389.40 159.27 385.65 167.76 383.96 176.77 C 389.55 175.44 395.14 173.84 400.14 170.92 C 405.91 167.66 410.72 163.03 415.40 158.40 C 420.58 153.16 426.98 149.37 432.40 144.40 C 444.48 133.60 457.77 123.82 472.89 117.72 C 476.18 116.23 480.48 114.89 481.26 110.82 C 485.36 91.26 489.95 71.61 497.95 53.22 C 500.86 46.76 504.07 40.16 509.36 35.29 M 347.91 133.90 C 344.25 136.82 342.98 141.66 342.60 146.13 C 342.26 152.13 343.64 158.62 347.88 163.11 C 353.74 169.29 361.34 174.26 370.00 175.03 C 371.84 165.31 374.87 155.26 372.28 145.39 C 370.93 139.38 366.92 133.14 360.54 131.78 C 356.31 131.05 351.42 131.09 347.91 133.90 M 433.99 156.00 C 427.86 161.93 422.02 168.50 418.63 176.43 C 416.33 181.74 416.77 188.68 421.28 192.72 C 425.38 196.92 431.92 195.97 437.07 194.70 C 450.31 191.03 459.87 180.09 466.53 168.60 C 469.30 163.71 470.17 158.08 471.38 152.67 C 472.87 145.45 475.21 138.39 475.92 131.02 C 460.71 136.94 445.83 144.58 433.99 156.00 Z" />
<path fill="#FFFFFF" opacity="1.00" d=" M 1351.51 45.79 C 1355.87 43.95 1360.89 43.79 1365.46 44.91 C 1368.19 45.66 1371.34 48.28 1370.20 51.43 C 1368.29 55.06 1364.40 56.95 1361.37 59.50 C 1354.28 64.83 1349.32 72.44 1345.68 80.42 C 1369.74 77.43 1394.01 73.22 1416.45 63.68 C 1424.26 60.49 1431.62 55.25 1440.40 55.39 C 1438.09 58.29 1435.81 61.47 1432.33 63.05 C 1416.07 70.73 1399.53 77.89 1382.43 83.48 C 1369.63 87.34 1356.77 91.10 1343.63 93.60 C 1340.51 94.26 1336.89 94.93 1335.15 97.93 C 1331.46 103.90 1329.14 110.58 1326.15 116.90 C 1321.58 127.56 1316.07 137.99 1313.75 149.45 C 1311.52 160.31 1310.40 171.55 1311.88 182.59 C 1312.83 188.52 1315.23 195.05 1320.84 198.04 C 1325.61 200.67 1331.26 198.76 1335.84 196.62 C 1347.54 191.13 1354.87 180.00 1362.57 170.14 C 1363.83 170.31 1366.34 170.64 1367.60 170.81 C 1364.03 179.83 1357.74 187.27 1351.84 194.82 C 1344.14 203.91 1334.84 211.65 1324.46 217.50 C 1316.56 221.74 1307.57 224.75 1298.51 223.61 C 1295.18 223.04 1292.82 220.23 1291.47 217.32 C 1288.23 210.52 1288.06 202.72 1288.84 195.36 C 1291.86 172.14 1298.04 149.29 1307.61 127.90 C 1311.58 117.97 1316.93 108.63 1320.24 98.43 C 1313.61 99.49 1307.00 102.10 1300.22 101.17 C 1296.04 99.08 1295.70 93.36 1297.11 89.44 C 1297.94 86.95 1300.67 86.05 1303.03 85.73 C 1310.56 84.80 1318.30 85.20 1325.71 83.33 C 1329.34 82.48 1331.23 78.97 1332.80 75.92 C 1335.99 69.34 1339.01 62.68 1342.48 56.24 C 1344.68 52.20 1347.07 47.71 1351.51 45.79 Z" />
<path fill="#FFFFFF" opacity="1.00" d=" M 576.82 91.89 C 580.97 87.09 587.40 83.24 593.94 84.54 C 596.10 84.63 595.95 86.97 596.42 88.53 C 596.97 91.95 598.54 95.06 600.20 98.07 C 594.10 102.13 587.81 106.54 580.41 107.69 C 577.64 107.95 573.61 108.10 572.59 104.81 C 571.26 100.11 573.93 95.43 576.82 91.89 Z" />
<path fill="#FFFFFF" opacity="1.00" d=" M 954.67 111.37 C 962.53 109.00 971.92 110.05 978.02 115.93 C 985.77 123.29 988.16 134.66 987.41 144.99 C 986.90 155.94 982.33 166.07 979.95 176.64 C 988.06 174.54 997.86 172.55 1002.45 164.76 C 1006.09 155.27 1005.83 144.37 1011.59 135.67 C 1016.31 128.04 1029.46 126.81 1034.57 134.61 C 1036.00 136.46 1034.13 138.55 1033.41 140.30 C 1030.29 145.40 1027.37 150.66 1025.72 156.44 C 1022.16 168.54 1019.12 181.20 1020.55 193.89 C 1020.98 198.33 1024.14 203.34 1029.05 203.35 C 1034.82 202.68 1039.83 199.37 1044.77 196.55 C 1055.87 190.01 1065.00 180.46 1071.99 169.76 C 1065.30 165.46 1057.33 161.30 1054.47 153.36 C 1051.80 143.91 1055.04 133.58 1060.94 126.00 C 1065.53 120.18 1071.50 114.62 1079.10 113.42 C 1087.20 111.99 1096.11 117.83 1097.35 126.11 C 1098.34 133.56 1096.81 141.12 1094.18 148.09 C 1092.40 152.92 1089.59 157.46 1089.05 162.68 C 1094.29 165.21 1100.25 165.48 1105.97 165.56 C 1110.17 165.50 1114.44 165.62 1118.58 164.71 C 1122.53 163.81 1124.73 160.05 1127.04 157.06 C 1134.82 145.89 1144.82 135.99 1157.03 129.75 C 1163.78 126.28 1170.85 123.19 1178.35 121.76 C 1183.46 120.69 1189.61 122.43 1192.10 127.34 C 1193.66 131.38 1192.71 135.96 1191.15 139.86 C 1187.71 147.90 1181.52 154.35 1175.09 160.10 C 1163.80 170.07 1149.77 176.36 1135.38 180.42 C 1135.55 186.70 1135.80 193.75 1140.46 198.55 C 1146.34 205.17 1156.15 206.59 1164.34 204.09 C 1179.62 200.43 1194.48 189.89 1199.05 174.28 C 1202.85 162.82 1207.20 151.53 1212.50 140.68 C 1215.86 133.75 1220.16 126.76 1227.01 122.79 C 1230.36 120.65 1234.43 120.42 1238.30 120.23 C 1235.00 126.26 1230.65 131.87 1229.06 138.69 C 1226.66 148.86 1222.74 158.68 1221.44 169.09 C 1227.63 162.67 1232.27 154.94 1238.58 148.61 C 1246.52 140.57 1254.05 131.94 1263.47 125.58 C 1269.21 121.59 1275.73 117.70 1283.00 118.25 C 1286.39 118.26 1290.21 119.95 1291.10 123.51 C 1292.81 130.73 1290.72 138.28 1287.49 144.77 C 1285.84 147.89 1284.10 151.10 1281.40 153.43 C 1279.34 154.96 1277.01 156.07 1274.77 157.30 C 1272.43 152.93 1271.18 147.18 1266.42 144.75 C 1260.38 142.86 1254.10 145.67 1249.48 149.50 C 1242.18 155.49 1236.50 163.15 1230.88 170.66 C 1226.56 177.04 1221.89 183.23 1218.24 190.03 C 1214.53 196.96 1216.34 205.22 1213.66 212.43 C 1209.76 220.14 1200.18 223.64 1191.95 222.33 C 1189.04 215.12 1191.95 207.27 1191.51 199.78 C 1185.01 206.29 1178.56 213.06 1170.48 217.65 C 1158.55 225.18 1144.14 228.83 1130.08 227.33 C 1121.71 226.37 1113.57 220.56 1111.74 212.04 C 1108.12 198.96 1112.89 185.81 1116.22 173.25 C 1109.18 173.69 1102.13 174.93 1095.07 174.15 C 1090.75 173.87 1086.50 172.66 1082.17 172.86 C 1079.74 173.55 1078.36 175.96 1076.81 177.76 C 1065.36 193.44 1052.09 208.08 1036.16 219.31 C 1030.90 222.84 1025.33 226.61 1018.86 227.23 C 1012.96 227.42 1008.24 222.71 1006.15 217.57 C 1000.93 205.25 1001.87 191.57 1001.34 178.50 C 994.30 181.02 987.63 184.48 980.51 186.77 C 977.33 187.85 973.87 188.86 971.61 191.53 C 968.00 195.67 965.40 200.58 961.80 204.73 C 952.87 215.21 941.17 224.10 927.40 226.75 C 918.70 228.48 908.61 227.47 901.99 221.02 C 894.80 213.88 891.74 203.62 890.75 193.77 C 889.54 178.99 892.16 164.07 897.01 150.13 C 900.90 139.36 907.83 129.88 916.28 122.23 C 919.90 119.09 924.15 116.09 929.10 115.80 C 931.99 115.64 935.30 117.74 934.78 120.99 C 935.01 123.52 932.37 124.68 930.53 125.70 C 926.63 127.51 922.33 129.02 919.65 132.60 C 913.14 140.68 910.07 151.03 908.82 161.19 C 907.74 172.08 908.91 184.07 915.93 192.93 C 919.86 197.89 925.14 203.07 931.97 202.76 C 939.24 203.07 945.39 198.73 951.38 195.24 C 951.46 194.40 951.56 193.55 951.66 192.71 C 944.50 191.43 937.00 189.66 931.50 184.57 C 924.80 178.76 921.40 169.78 921.43 161.02 C 921.20 150.05 925.04 139.29 931.22 130.31 C 936.77 121.74 944.88 114.60 954.67 111.37 M 1075.39 129.81 C 1068.75 132.67 1063.16 140.93 1066.99 148.03 C 1069.03 153.31 1073.95 156.33 1078.93 158.40 C 1081.82 151.18 1084.97 143.54 1083.66 135.60 C 1083.34 131.74 1079.23 128.29 1075.39 129.81 M 948.45 131.77 C 945.15 132.32 942.12 134.40 940.68 137.45 C 938.03 142.84 937.94 149.23 939.37 154.97 C 940.95 161.07 945.87 165.51 950.85 168.99 C 955.10 171.81 959.78 174.61 965.03 174.74 C 967.90 169.24 968.62 162.93 969.22 156.84 C 969.85 148.79 967.96 139.85 961.70 134.30 C 958.15 131.07 952.91 131.02 948.45 131.77 M 1147.01 149.03 C 1141.99 154.01 1139.31 160.81 1137.93 167.63 C 1147.06 167.11 1156.61 164.85 1163.61 158.62 C 1166.87 155.64 1169.97 151.65 1169.82 147.00 C 1169.86 143.89 1166.64 141.85 1163.85 141.60 C 1157.40 141.00 1151.36 144.54 1147.01 149.03 Z" />
</g>
</svg>
